<?xml version="1.0" standalone="no"?><!DOCTYPE svg PUBLIC "-//W3C//DTD SVG 1.1//EN" "http://www.w3.org/Graphics/SVG/1.1/DTD/svg11.dtd"><svg t="1591847702879" class="icon" viewBox="0 0 1024 1024" version="1.1" xmlns="http://www.w3.org/2000/svg" p-id="31446" xmlns:xlink="http://www.w3.org/1999/xlink" width="128" height="128"><defs><style type="text/css"></style></defs><path d="M55.296 335.36C25.088 335.36 0 359.936 0 390.656v243.2c0 30.208 25.088 55.296 55.296 55.296s55.296-25.088 55.296-55.296V390.656c0-30.72-25.088-55.296-55.296-55.296z m228.352-118.272c-30.208 0-55.296 25.088-55.296 55.296v478.72c0 30.208 25.088 55.296 55.296 55.296s55.296-25.088 55.296-55.296V272.384c0-30.208-25.088-55.296-55.296-55.296zM512 40.448c-30.208 0-55.296 25.088-55.296 55.296v832.512c0 30.208 25.088 55.296 55.296 55.296s55.296-25.088 55.296-55.296V95.744c0-30.208-25.088-55.296-55.296-55.296z m456.704 294.912c-30.208 0-55.296 25.088-55.296 55.296v243.2c0 30.208 25.088 55.296 55.296 55.296s55.296-25.088 55.296-55.296V390.656c0-30.72-25.088-55.296-55.296-55.296z m-228.352-118.272c-30.208 0-55.296 25.088-55.296 55.296v478.72c0 30.208 25.088 55.296 55.296 55.296s55.296-25.088 55.296-55.296V272.384c0-30.208-25.088-55.296-55.296-55.296z m0 0" p-id="31447" fill="#fa5740"></path></svg>